<?xml version="1.0" encoding="utf-8"?>
<!-- Generator: Adobe Illustrator 16.0.0, SVG Export Plug-In . SVG Version: 6.00 Build 0)  -->
<!DOCTYPE svg PUBLIC "-//W3C//DTD SVG 1.1//EN" "http://www.w3.org/Graphics/SVG/1.1/DTD/svg11.dtd">
<svg version="1.1" id="Layer_1" xmlns="http://www.w3.org/2000/svg" xmlns:xlink="http://www.w3.org/1999/xlink" x="0px" y="0px"
	 width="30px" height="30px" viewBox="5 5 30 30" enable-background="new 5 5 30 30" xml:space="preserve">
<path fill="#FFFFFF" d="M21.928,20L34.6,7.328c0.534-0.534,0.534-1.396,0-1.929c-0.532-0.532-1.395-0.532-1.928,0L20,18.072
	L7.328,5.4c-0.532-0.532-1.396-0.532-1.928,0c-0.533,0.533-0.533,1.395,0,1.93l12.671,12.671L5.399,32.672
	c-0.533,0.534-0.533,1.396,0,1.93C5.666,34.867,6.015,35,6.363,35c0.35,0,0.698-0.133,0.964-0.398L20,21.929l12.672,12.673
	C32.938,34.867,33.287,35,33.637,35c0.349,0,0.697-0.133,0.963-0.398c0.534-0.533,0.534-1.396,0-1.93L21.928,20z"/>
</svg>
