<?xml version="1.0" encoding="utf-8"?>
<!-- Generator: Adobe Illustrator 16.0.0, SVG Export Plug-In . SVG Version: 6.00 Build 0)  -->
<!DOCTYPE svg PUBLIC "-//W3C//DTD SVG 1.1//EN" "http://www.w3.org/Graphics/SVG/1.1/DTD/svg11.dtd">
<svg version="1.1" id="Calque_1" xmlns="http://www.w3.org/2000/svg" xmlns:xlink="http://www.w3.org/1999/xlink" x="0px" y="0px"
	 width="2501.061px" height="708.66px" viewBox="0 0 2501.061 708.66" enable-background="new 0 0 2501.061 708.66"
	 xml:space="preserve">
<text transform="matrix(1 0 0 1 1351.8555 701.6934)" fill="#D4D2D2" font-family="'Futura-Light'" font-size="199" letter-spacing="17">Architecture</text>
<text transform="matrix(1 0 0 1 -48.0591 379.459)" display="none" fill="#4B464A" font-family="'FuturaPT-Book'" font-size="565">EG</text>
<g id="logo_vectorisé">
	<g>
		<polygon fill="#4B464A" points="77.176,181.232 77.176,78.882 356.835,78.882 356.835,6.913 1.094,6.913 1.094,181.232 		"/>
		<polygon fill="#4B464A" points="1.094,620.662 1.094,692.693 356.835,692.693 356.835,620.719 		"/>
		<polygon fill="#4B464A" points="1.094,282.379 1.094,354.107 348.611,354.107 348.611,282.458 77.176,282.458 77.176,282.379 		
			"/>
	</g>
	<g>
		<path fill="#4B464A" d="M549.141,387.014c-0.947-10.124-1.462-20.539-1.462-31.272c0-159.362,115.153-283.77,280.685-283.77
			c82.255,0,133.665,30.845,166.564,57.576c22.616,18.507,45.24,43.183,64.772,70.944l56.551-51.408
			c-19.536-26.732-48.327-57.578-79.168-81.225C970.25,16.451,893.138,0,827.339,0C622.734,0,469.538,155.252,469.538,354.713
			c0,10.912,0.483,21.676,1.375,32.3H549.141z"/>
		<path fill="#4B464A" d="M860.238,352.656v71.973h203.574c-2.056,43.181-15.42,76.085-27.759,97.676
			c-34.202,60.302-99.132,103.268-176.168,113.04v72.479c134.133-12.595,201.387-96.132,220.378-121.776
			c43.182-58.602,65.804-140.856,65.804-216.938v-16.454H860.238z"/>
	</g>
</g>
</svg>
