<?xml version="1.0" encoding="utf-8"?>
<!-- Generator: Adobe Illustrator 16.0.0, SVG Export Plug-In . SVG Version: 6.00 Build 0)  -->
<!DOCTYPE svg PUBLIC "-//W3C//DTD SVG 1.1//EN" "http://www.w3.org/Graphics/SVG/1.1/DTD/svg11.dtd">
<svg version="1.1" id="Layer_1" xmlns="http://www.w3.org/2000/svg" xmlns:xlink="http://www.w3.org/1999/xlink" x="0px" y="0px"
	 width="59.259px" height="44.444px" viewBox="21.667 12.222 59.259 44.444" enable-background="new 21.667 12.222 59.259 44.444"
	 xml:space="preserve">
<path fill="#FAFAFA" d="M80.926,16.017L80.904,16c-0.213-2.114-2.011-3.778-4.178-3.778H25.866c-2.167,0-3.964,1.664-4.178,3.777
	l-0.021,0.018l0.02,0.016c-0.012,0.128-0.02,0.258-0.02,0.389v36.045c0,2.311,1.89,4.199,4.199,4.199h50.861
	c2.31,0,4.199-1.889,4.199-4.199V16.421c0-0.131-0.008-0.261-0.02-0.389L80.926,16.017z M68.775,18.148L51.297,32.131l-17.48-13.983
	H68.775z M75,50.74H27.593V20.757l21.853,17.482c0.541,0.433,1.196,0.65,1.852,0.65c0.654,0,1.31-0.217,1.851-0.65L75,20.757V50.74z
	"/>
<text transform="matrix(1 0 0 1 14.2598 84.4453)" font-family="'HelveticaNeue-Bold'" font-size="3.7037">Created by Thomas Le Bas</text>
<text transform="matrix(1 0 0 1 14.2598 88.1484)" font-family="'HelveticaNeue-Bold'" font-size="3.7037">from the Noun Project</text>
</svg>
