<svg xmlns="http://www.w3.org/2000/svg" xmlns:xlink="http://www.w3.org/1999/xlink" version="1.1" id="Calque_1" x="0px" y="0px" viewBox="5.0 -10.0 100.0 135.0" enable-background="new 0 0 100 100" xml:space="preserve" height="100px" width="100px">
<polygon fill="#000000" points="1.4,25.6 9.4,19.9 17.6,15.3 21,14.1 22,15.5 22,18 26,19.7 26,18 27.3,17.3 31.9,18.7 32.7,21.5   35.5,21.4 39.9,19 43.7,14.9 46,14.1 46,16 49.1,14.9 47.8,11.4 51,10 51,12 55.2,13 57.4,10 59,10 59,14 62.3,14 64.2,11 66,11   66,15 67.2,17 69,17 69,19 73.5,19 76.3,17.9 78.2,20.4 80.3,22.3 82.6,22.6 85,23.6 83.1,26.9 82.6,31.8 80.9,34.3 81.4,38   81.2,39 84,39 87.1,39.6 90.7,40.4 93.4,43.9 95.7,45.3 94,48 95.8,50 98,50.8 98,54 98,57 94.3,60.8 92.9,64.9 89.7,62.3   86.4,67.5 82.6,73.7 83.4,78.6 86.1,81.1 85.6,85.7 82.3,88.8 77,89.9 74.7,86.8 72,86.3 72,83 67.5,83.6 63.6,79 60,79 60.3,74.3   58.5,72.7 59.2,66.6 60.7,64.5 58.5,63.3 55.4,67.1 55.2,70.1 49.7,72.6 42.2,71.5 40.9,68.8 42.8,68 42,65 40,65 43.1,60   41.8,58.9 37.7,56.2 34.4,56.7 31.6,55.7 30.3,57.3 28.6,55.4 28.4,50 25,50 19.3,48 18.7,44.7 17.7,40.9 15.2,37.3 9.7,40.8   4.5,36.5 2.3,35.4 2.4,31 "/>
<text x="0.0" y="117.5" font-size="5.0" font-weight="bold" font-family="Helvetica Neue, Helvetica, Arial-Unicode, Arial, Sans-serif" fill="#000000">Created by Matthieu Rodrigues</text><text x="0.0" y="122.5" font-size="5.0" font-weight="bold" font-family="Helvetica Neue, Helvetica, Arial-Unicode, Arial, Sans-serif" fill="#000000">from the Noun Project</text></svg>