<?xml version="1.0" encoding="utf-8"?>
<!-- Generator: Adobe Illustrator 16.0.0, SVG Export Plug-In . SVG Version: 6.00 Build 0)  -->
<!DOCTYPE svg PUBLIC "-//W3C//DTD SVG 1.1//EN" "http://www.w3.org/Graphics/SVG/1.1/DTD/svg11.dtd">
<svg version="1.1" id="Layer_1" xmlns="http://www.w3.org/2000/svg" xmlns:xlink="http://www.w3.org/1999/xlink" x="0px" y="0px"
	 width="44.562px" height="39.761px" viewBox="0 0 44.562 39.761" enable-background="new 0 0 44.562 39.761" xml:space="preserve">
<g>
	<path d="M6.354,6.27c0-1.185,0.948-2.133,2.133-2.133h28.741c1.186,0,2.134,0.948,2.134,2.133s-0.948,2.133-2.134,2.133H8.487
		C7.302,8.403,6.354,7.455,6.354,6.27z M39.363,18.892c0,1.127-0.948,2.133-2.134,2.133H8.487c-1.185,0-2.133-1.006-2.133-2.133
		c0-1.186,0.948-2.134,2.133-2.134h28.741C38.414,16.759,39.363,17.707,39.363,18.892z M39.363,31.455
		c0,1.185-0.948,2.134-2.134,2.134H8.487c-1.185,0-2.133-0.949-2.133-2.134s0.948-2.134,2.133-2.134h28.741
		C38.414,29.321,39.363,30.27,39.363,31.455z"/>
</g>
</svg>
