<?xml version="1.0" encoding="utf-8"?>
<!-- Generator: Adobe Illustrator 18.1.0, SVG Export Plug-In . SVG Version: 6.00 Build 0)  -->
<svg version="1.1" id="Calque_1" xmlns="http://www.w3.org/2000/svg" xmlns:xlink="http://www.w3.org/1999/xlink" x="0px" y="0px"
	 viewBox="0 0 595.3 841.9" enable-background="new 0 0 595.3 841.9" xml:space="preserve">
<g>
	<path d="M297.6,638C160,638,47.1,526.4,47.1,387.5c0-137.7,111.6-250.5,250.5-250.5s250.5,111.6,250.5,250.5S435.3,638,297.6,638z
		 M297.6,163c-124,0-225.7,100.5-225.7,225.7s101.7,224.5,225.7,224.5s225.7-100.5,225.7-225.7S421.7,163,297.6,163z"/>
	<g>
		<rect x="285.2" y="67.5" width="24.8" height="95.5"/>
		<rect x="250.5" y="55.1" width="95.5" height="24.8"/>
	</g>
	<rect x="155.2" y="156" transform="matrix(-0.5001 -0.866 0.866 -0.5001 111.1972 400.9342)" width="32.2" height="24.8"/>
	<polygon points="310,399.9 171.1,399.9 171.1,375.1 285.2,375.1 285.2,197.7 310,197.7 	"/>
</g>
</svg>
