<?xml version="1.0" encoding="utf-8"?>
<!-- Generator: Adobe Illustrator 16.0.0, SVG Export Plug-In . SVG Version: 6.00 Build 0)  -->
<!DOCTYPE svg PUBLIC "-//W3C//DTD SVG 1.1//EN" "http://www.w3.org/Graphics/SVG/1.1/DTD/svg11.dtd">
<svg version="1.1" id="Calque_1" xmlns="http://www.w3.org/2000/svg" xmlns:xlink="http://www.w3.org/1999/xlink" x="0px" y="0px"
	 width="283.46px" height="283.46px" viewBox="0 0 283.46 283.46" enable-background="new 0 0 283.46 283.46" xml:space="preserve">
<path d="M207.681,186.138c-1.451,0-2.9-0.554-4.01-1.66L70.445,51.252c-2.215-2.213-2.215-5.803,0-8.016
	c2.213-2.216,5.805-2.216,8.017,0l133.226,133.227c2.216,2.215,2.216,5.803,0,8.016
	C210.582,185.584,209.132,186.138,207.681,186.138z"/>
<path d="M74.455,186.138c-1.451,0-2.902-0.554-4.009-1.66c-2.215-2.215-2.215-5.803,0-8.016L203.671,43.236
	c2.216-2.216,5.803-2.216,8.017,0c2.216,2.213,2.216,5.803,0,8.016L78.462,184.478C77.357,185.584,75.906,186.138,74.455,186.138z"
	/>
</svg>
