<?xml version="1.0" encoding="utf-8"?>
<!-- Generator: Adobe Illustrator 16.0.0, SVG Export Plug-In . SVG Version: 6.00 Build 0)  -->
<!DOCTYPE svg PUBLIC "-//W3C//DTD SVG 1.1//EN" "http://www.w3.org/Graphics/SVG/1.1/DTD/svg11.dtd">
<svg version="1.1" id="Layer_1" xmlns="http://www.w3.org/2000/svg" xmlns:xlink="http://www.w3.org/1999/xlink" x="0px" y="0px"
	 width="75.833px" height="39.975px" viewBox="13.334 2 75.833 39.975" enable-background="new 13.334 2 75.833 39.975"
	 xml:space="preserve">
<path fill="none" d="M38.818,18.37c-0.368,1.229-0.569,2.531-0.569,3.88c0,7.481,6.086,13.569,13.569,13.569
	c7.48,0,13.566-6.088,13.566-13.569c0-7.482-6.086-13.569-13.566-13.569c-3.218,0-6.175,1.127-8.503,3.004"/>
<path fill="none" d="M45.714,14.781c1.702-1.437,3.9-2.305,6.301-2.305c5.397,0,9.772,4.375,9.772,9.773
	c0,5.397-4.375,9.772-9.772,9.772c-5.396,0-9.772-4.375-9.772-9.772c0-0.962,0.142-1.893,0.401-2.771"/>
<path fill="#FAFAFA" d="M52.015,32.022c5.397,0,9.772-4.375,9.772-9.772c0-5.398-4.375-9.773-9.772-9.773
	c-2.401,0-4.599,0.868-6.301,2.305l5.583,7.206l-8.652-2.508c-0.259,0.878-0.401,1.808-0.401,2.771
	C42.242,27.647,46.619,32.022,52.015,32.022z"/>
<path fill="#FAFAFA" d="M87.111,21.037C78.203,8.938,64.969,2,50.801,2C37.263,2,24.408,8.438,15.536,19.665l-1.277,1.616
	l1.221,1.658c8.91,12.099,22.145,19.037,36.311,19.037c13.539,0,26.393-6.439,35.265-17.666l1.278-1.615L87.111,21.037z
	 M51.818,35.817c-7.483,0-13.569-6.087-13.569-13.567c0-1.349,0.201-2.65,0.569-3.88l-3.11-0.902
	c-0.451,1.517-0.697,3.12-0.697,4.782c0,5.065,2.262,9.603,5.819,12.687c-7.542-2.299-14.384-6.949-19.72-13.539
	c5.468-6.286,12.403-10.657,19.945-12.694l0.28,0.424l1.982,2.559c2.328-1.877,5.285-3.004,8.502-3.004
	c7.481,0,13.567,6.086,13.567,13.569C65.385,29.731,59.299,35.817,51.818,35.817z M62.869,34.879
	c3.52-3.082,5.756-7.596,5.756-12.629c0-5.218-2.392-9.887-6.133-12.972c7.253,2.371,13.828,6.922,18.992,13.3
	C76.338,28.491,69.896,32.702,62.869,34.879z"/>
</svg>
