<svg xmlns="http://www.w3.org/2000/svg" xmlns:xlink="http://www.w3.org/1999/xlink" version="1.1" x="0px" y="0px" viewBox="0 0 1200 1500" enable-background="new 0 0 1200 1200" xml:space="preserve"><path fill="#000000" d="M1032,414.9l-14.4,14.4c-15.6,15.6-40.8,15.6-56.4,0s-15.6-40.8,0-56.4l14.4-14.4L823.2,206.1  c-94.8-94.8-195.6-93.6-292.8,3.6c-26.4,26.4-44.4,58.8-54,94.8l-3.6,15.6l26.4,13.2l9.6-9.6c105.6-105.6,141.6-68.4,153.6-57.6  l4.8,6c15.6,15.6,15.6,40.8,0,56.4l-14.4,14.4l27.6,27.6l-552,513.6c-15.6,13.2-26.4,33.6-26.4,55.2s7.2,42,22.8,56.4l45.6,45.6  c14.4,14.4,36,22.8,56.4,22.8c21.6-1.2,40.8-10.8,54-26.4l514.8-553.2l28.8,28.8l14.4-14.4c15.6-15.6,40.8-15.6,56.4,0  s15.6,40.8,0,56.4l-14.4,14.4l66,66L1098,484.5L1032,414.9z M225.6,1022.1c-10.8,0-20.4-3.6-27.6-10.8l-45.6-45.6  c-7.2-7.2-10.8-16.8-10.8-27.6c0-10.8,4.8-19.2,13.2-27.6l554.4-516l57.6,57.6l-516,554.4C244.8,1017.3,235.2,1022.1,225.6,1022.1z   M945.6,576.9l-12-12c18-30,13.2-69.6-12-96s-66-30-96-12L708,339.3c18-30,14.4-69.6-12-96l-4.8-6c-32.4-32.4-73.2-36-121.2-10.8  c78-70.8,150-68.4,225.6,7.2l126,126c-18,30-13.2,69.6,12,96c26.4,26.4,66,30,96,12l12,12L945.6,576.9z"/><text x="0" y="1215" fill="#000000" font-size="5px" font-weight="bold" font-family="'Helvetica Neue', Helvetica, Arial-Unicode, Arial, Sans-serif">Created by Christina Sicoli</text><text x="0" y="1220" fill="#000000" font-size="5px" font-weight="bold" font-family="'Helvetica Neue', Helvetica, Arial-Unicode, Arial, Sans-serif">from the Noun Project</text></svg>