<?xml version="1.0" encoding="utf-8"?>
<!-- Generator: Adobe Illustrator 18.1.0, SVG Export Plug-In . SVG Version: 6.00 Build 0)  -->
<svg version="1.1" id="Calque_1" xmlns="http://www.w3.org/2000/svg" xmlns:xlink="http://www.w3.org/1999/xlink" x="0px" y="0px"
	 viewBox="-1583 1417.7 2501.1 708.7" enable-background="new -1583 1417.7 2501.1 708.7" xml:space="preserve">
<text transform="matrix(1 0 0 1 -1631.0593 1797.1099)" display="none" fill="#4B464A" enable-background="new    " font-family="'FuturaPT-Book'" font-size="565">EG</text>
<g id="logo_vectorisé">
	<g>
		<polygon fill="#4B464A" points="-1505.8,1598.9 -1505.8,1496.5 -1226.2,1496.5 -1226.2,1424.6 -1581.9,1424.6 -1581.9,1598.9 		
			"/>
		<polygon fill="#4B464A" points="-1581.9,2038.3 -1581.9,2110.3 -1226.2,2110.3 -1226.2,2038.4 		"/>
		<polygon fill="#4B464A" points="-1581.9,1700 -1581.9,1771.8 -1234.4,1771.8 -1234.4,1700.1 -1505.8,1700.1 -1505.8,1700 		"/>
	</g>
	<g>
		<path fill="#4B464A" d="M-1033.9,1804.7c-0.9-10.1-1.5-20.5-1.5-31.3c0-159.4,115.2-283.8,280.7-283.8
			c82.3,0,133.7,30.8,166.6,57.6c22.6,18.5,45.2,43.2,64.8,70.9l56.6-51.4c-19.5-26.7-48.3-57.6-79.2-81.2
			c-66.8-51.4-143.9-67.9-209.7-67.9c-204.6,0-357.8,155.3-357.8,354.7c0,10.9,0.5,21.7,1.4,32.3H-1033.9L-1033.9,1804.7z"/>
		<path fill="#4B464A" d="M-722.8,1770.3v72h203.6c-2.1,43.2-15.4,76.1-27.8,97.7c-34.2,60.3-99.1,103.3-176.2,113v72.5
			c134.1-12.6,201.4-96.1,220.4-121.8c43.2-58.6,65.8-140.9,65.8-216.9v-16.5L-722.8,1770.3L-722.8,1770.3z"/>
	</g>
</g>
</svg>
