<?xml version="1.0" encoding="utf-8"?>
<!-- Generator: Adobe Illustrator 18.1.0, SVG Export Plug-In . SVG Version: 6.00 Build 0)  -->
<svg version="1.1" id="Calque_1" xmlns="http://www.w3.org/2000/svg" xmlns:xlink="http://www.w3.org/1999/xlink" x="0px" y="0px"
	 viewBox="56 66.2 708.7 708.7" enable-background="new 56 66.2 708.7 708.7" xml:space="preserve">
<g id="plan_clair">
	<g enable-background="new    ">
		<path fill="#7A7A7A" d="M87.5,681.1l-12,29.5h-5.8l37.6-92.7l37.5,92.7h-5.8l-12-29.5H87.5z M107.2,632.4l-17.6,43.3h35.1
			L107.2,632.4z"/>
		<path fill="#7A7A7A" d="M169.8,662.8h0.2c1.1-2.6,2.7-4.7,4.7-6.1c2-1.5,4.4-2.2,7.2-2.2c1.9,0,3.8,0.4,5.8,1.3l-2.9,4.8
			c-1.3-0.7-2.5-1.1-3.8-1.1c-2.5,0-4.6,0.7-6.1,2c-1.5,1.3-2.7,3-3.5,5.2c-0.8,2.1-1.2,4.5-1.4,7c-0.2,2.5-0.3,5.5-0.3,8.9v28.1
			h-5.4v-55h5.4L169.8,662.8L169.8,662.8z"/>
		<path fill="#7A7A7A" d="M249.6,668.4c-5.5-5.9-11.9-8.9-19.4-8.9c-3.2,0-6.1,0.6-8.9,1.9c-2.8,1.3-5.2,3-7.3,5.2
			c-2.1,2.2-3.7,4.7-4.8,7.6c-1.2,2.9-1.7,5.8-1.7,8.9s0.6,6.1,1.7,8.9c1.1,2.9,2.7,5.4,4.8,7.7s4.5,4,7.3,5.3
			c2.8,1.3,5.8,1.9,8.9,1.9c3.9,0,7.6-0.9,11.1-2.6c3.5-1.7,6.6-4.2,9.1-7.3v7.3c-2.8,2.5-5.9,4.3-9.3,5.7c-3.4,1.3-7,2-10.6,2
			c-4,0-7.8-0.7-11.2-2.2c-3.4-1.5-6.4-3.5-9-6.1c-2.5-2.6-4.5-5.7-5.9-9.2c-1.4-3.5-2.1-7.3-2.1-11.2c0-3.9,0.7-7.6,2.1-11.1
			c1.4-3.5,3.4-6.5,6-9.2c2.6-2.6,5.6-4.7,9-6.1c3.5-1.5,7.2-2.2,11.1-2.2c7.5,0,13.8,2.3,19.2,6.8L249.6,668.4L249.6,668.4z"/>
		<path fill="#7A7A7A" d="M279.6,612.4v51.8h0.2c1.6-3.1,3.8-5.5,6.7-7.2c2.9-1.7,6.1-2.6,9.6-2.6c6.7,0,11.4,1.9,14.1,5.8
			c2.7,3.8,4,9.6,4,17.2v33.2h-5.4v-33.2c0-2.9-0.1-5.3-0.4-7.3c-0.3-2-0.9-3.8-1.8-5.5c-0.9-1.6-2.2-2.9-4-3.8
			c-1.7-0.9-4.1-1.4-7-1.4c-3.3,0-6,0.7-8.2,2.1c-2.2,1.4-3.8,3.2-4.9,5.5c-1.1,2.3-1.9,4.8-2.3,7.6c-0.4,2.7-0.7,5.7-0.7,8.9v27.1
			h-5.4v-98.2L279.6,612.4L279.6,612.4z"/>
		<path fill="#7A7A7A" d="M350.8,633.8c1,1,1.4,2.1,1.4,3.5c0,1.3-0.5,2.5-1.4,3.5c-1,1-2.1,1.4-3.5,1.4c-1.4,0-2.5-0.5-3.5-1.4
			c-1-1-1.4-2.1-1.4-3.5c0-1.3,0.5-2.5,1.4-3.5c1-1,2.1-1.4,3.5-1.4C348.7,632.4,349.8,632.9,350.8,633.8z M349.9,710.6h-5.4v-55
			h5.4V710.6z"/>
		<path fill="#7A7A7A" d="M386.3,710.6H381v-50h-6.1v-5h6.1V636h5.4v19.6h9.6v5h-9.6V710.6z"/>
		<path fill="#7A7A7A" d="M415.2,683.6c0,7,2.1,12.6,6.2,16.8c4.2,4.2,9.4,6.4,15.8,6.4c4.2,0,8-1.1,11.3-3.4c3.3-2.3,6-5.3,8.1-9.1
			l4.5,2.6c-2.5,4.8-5.8,8.4-10.1,11c-4.3,2.6-9.1,3.9-14.5,3.9c-4,0-7.6-0.8-10.9-2.3c-3.3-1.5-6.1-3.6-8.5-6.2
			c-2.4-2.7-4.2-5.7-5.4-9.2c-1.2-3.5-1.8-7.2-1.8-11.1c0-3.9,0.6-7.5,1.9-10.9c1.3-3.4,3.1-6.4,5.5-9.1c2.4-2.7,5.2-4.7,8.5-6.2
			c3.3-1.5,6.9-2.3,10.8-2.3c4,0,7.7,0.8,11,2.3c3.3,1.5,6.1,3.6,8.4,6.3c2.3,2.7,4,5.8,5.2,9.3c1.2,3.5,1.8,7.3,1.8,11.2
			L415.2,683.6L415.2,683.6z M457.6,678.6c-0.3-2.5-1.1-5-2.2-7.3c-1.1-2.3-2.7-4.4-4.5-6.2c-1.9-1.8-4-3.2-6.5-4.2
			c-2.5-1-5-1.5-7.7-1.5c-2.8,0-5.4,0.5-7.9,1.5c-2.5,1-4.7,2.4-6.7,4.2c-2,1.8-3.6,3.8-4.8,6.2c-1.2,2.3-1.9,4.8-2.1,7.3
			L457.6,678.6L457.6,678.6z"/>
		<path fill="#7A7A7A" d="M528,668.4c-5.5-5.9-11.9-8.9-19.4-8.9c-3.2,0-6.1,0.6-8.9,1.9c-2.8,1.3-5.2,3-7.3,5.2
			c-2.1,2.2-3.7,4.7-4.8,7.6c-1.1,2.9-1.7,5.8-1.7,8.9s0.6,6.1,1.7,8.9c1.1,2.9,2.7,5.4,4.8,7.7c2.1,2.3,4.5,4,7.3,5.3
			c2.8,1.3,5.8,1.9,8.9,1.9c3.9,0,7.6-0.9,11.1-2.6c3.5-1.7,6.6-4.2,9.1-7.3v7.3c-2.8,2.5-5.9,4.3-9.3,5.7c-3.4,1.3-7,2-10.6,2
			c-4,0-7.8-0.7-11.2-2.2c-3.5-1.5-6.4-3.5-9-6.1c-2.5-2.6-4.5-5.7-5.9-9.2c-1.4-3.5-2.1-7.3-2.1-11.2c0-3.9,0.7-7.6,2.1-11.1
			c1.4-3.5,3.4-6.5,6-9.2c2.6-2.6,5.6-4.7,9-6.1s7.2-2.2,11.1-2.2c7.5,0,13.8,2.3,19.2,6.8L528,668.4L528,668.4z"/>
		<path fill="#7A7A7A" d="M558.6,710.6h-5.4v-50h-6.1v-5h6.1V636h5.4v19.6h9.6v5h-9.6V710.6z"/>
		<path fill="#7A7A7A" d="M626.2,655.6v33c0,3.9-0.2,7-0.6,9.3c-0.4,2.3-1.3,4.5-2.7,6.5c-1.8,2.5-4.2,4.3-7.1,5.5
			c-2.9,1.2-6,1.8-9.3,1.8c-3.3,0-6.3-0.6-9.3-1.8c-2.9-1.2-5.3-3.1-7.1-5.5c-1.4-2-2.3-4.1-2.7-6.5c-0.4-2.3-0.6-5.5-0.6-9.3v-33
			h5.4v31.1c0,3.2,0.2,5.9,0.5,8.2c0.3,2.3,1,4.3,1.9,6.1c1,1.8,2.4,3.2,4.3,4.3c1.9,1.1,4.5,1.6,7.7,1.6c3.2,0,5.7-0.5,7.7-1.6
			c1.9-1.1,3.4-2.5,4.3-4.3c1-1.8,1.6-3.8,1.9-6.1c0.3-2.3,0.5-5,0.5-8.2v-31.1H626.2z"/>
		<path fill="#7A7A7A" d="M659,662.8h0.2c1.1-2.6,2.7-4.7,4.7-6.1s4.4-2.2,7.2-2.2c1.9,0,3.8,0.4,5.8,1.3l-2.9,4.8
			c-1.3-0.7-2.5-1.1-3.8-1.1c-2.5,0-4.6,0.7-6.1,2s-2.7,3-3.5,5.2c-0.8,2.1-1.2,4.5-1.4,7c-0.2,2.5-0.3,5.5-0.3,8.9v28.1h-5.4v-55
			h5.4L659,662.8L659,662.8z"/>
		<path fill="#7A7A7A" d="M696.8,683.6c0,7,2.1,12.6,6.2,16.8c4.2,4.2,9.4,6.4,15.8,6.4c4.2,0,8-1.1,11.3-3.4c3.3-2.3,6-5.3,8.1-9.1
			l4.5,2.6c-2.5,4.8-5.8,8.4-10.1,11c-4.3,2.6-9.1,3.9-14.5,3.9c-4,0-7.6-0.8-10.9-2.3c-3.3-1.5-6.1-3.6-8.5-6.2
			c-2.4-2.7-4.2-5.7-5.4-9.2c-1.2-3.5-1.8-7.2-1.8-11.1c0-3.9,0.6-7.5,1.9-10.9c1.3-3.4,3.1-6.4,5.5-9.1c2.4-2.7,5.2-4.7,8.5-6.2
			c3.3-1.5,6.9-2.3,10.8-2.3c4,0,7.7,0.8,11,2.3c3.3,1.5,6.1,3.6,8.4,6.3c2.3,2.7,4,5.8,5.2,9.3c1.2,3.5,1.8,7.3,1.8,11.2
			L696.8,683.6L696.8,683.6z M739.1,678.6c-0.3-2.5-1.1-5-2.2-7.3c-1.2-2.3-2.7-4.4-4.5-6.2c-1.9-1.8-4-3.2-6.5-4.2
			c-2.5-1-5-1.5-7.7-1.5c-2.8,0-5.4,0.5-7.9,1.5c-2.5,1-4.7,2.4-6.7,4.2c-2,1.8-3.6,3.8-4.8,6.2c-1.2,2.3-1.9,4.8-2.1,7.3
			L739.1,678.6L739.1,678.6z"/>
	</g>
	
		<text transform="matrix(1 0 0 1 49.0007 525.2923)" display="none" fill="#444348" enable-background="new    " font-family="'FuturaPT-Book'" font-size="565">EG</text>
	<g id="logo_vectorisé">
		<g>
			<polygon fill="#444348" points="114.4,227.4 114.4,166.5 280.8,166.5 280.8,123.7 69.1,123.7 69.1,227.4 			"/>
			<polygon fill="#444348" points="69.1,488.9 69.1,531.8 280.8,531.8 280.8,489 			"/>
			<polygon fill="#444348" points="69.1,287.6 69.1,330.3 275.9,330.3 275.9,287.6 114.4,287.6 114.4,287.6 			"/>
		</g>
		<g>
			<path fill="#444348" d="M395.3,349.9c-0.6-6-0.9-12.2-0.9-18.6c0-94.8,68.5-168.9,167.1-168.9c49,0,79.6,18.4,99.1,34.3
				c13.5,11,26.9,25.7,38.6,42.2l33.7-30.6c-11.6-15.9-28.8-34.3-47.1-48.3c-39.8-30.6-85.7-40.4-124.8-40.4
				c-121.8,0-213,92.4-213,211.1c0,6.5,0.3,12.9,0.8,19.2L395.3,349.9L395.3,349.9z"/>
			<path fill="#444348" d="M580.4,329.4v42.8h121.2c-1.2,25.7-9.2,45.3-16.5,58.1c-20.4,35.9-59,61.5-104.9,67.3v43.1
				c79.8-7.5,119.9-57.2,131.2-72.5c25.7-34.9,39.2-83.8,39.2-129.1v-9.8H580.4z"/>
		</g>
	</g>
</g>
</svg>
