<?xml version="1.0" encoding="utf-8"?>
<!-- Generator: Adobe Illustrator 18.1.0, SVG Export Plug-In . SVG Version: 6.00 Build 0)  -->
<svg version="1.1" id="Layer_1" xmlns="http://www.w3.org/2000/svg" xmlns:xlink="http://www.w3.org/1999/xlink" x="0px" y="0px"
	 viewBox="-267 398.4 59.3 44.4" enable-background="new -267 398.4 59.3 44.4" xml:space="preserve">
<g>
	<path fill="#020202" d="M-210.7,405.1v33.6c0,0.6-0.5,1.2-1.2,1.2h-50.9c-0.6,0-1.2-0.5-1.2-1.2v-33.1l24.9,17.5l1.8,1.2l1.7-1.3
		L-210.7,405.1 M-211.9,398.4h-50.9c-2.2,0-4,1.7-4.2,3.8l0,0l0,0c0,0.1,0,0.3,0,0.4v36c0,2.3,1.9,4.2,4.2,4.2h50.9
		c2.3,0,4.2-1.9,4.2-4.2v-36c0-0.1,0-0.3,0-0.4l0,0l0,0C-208,400.1-209.8,398.4-211.9,398.4L-211.9,398.4z M-237.4,420.7l-26.6-18.7
		l52,0.3L-237.4,420.7L-237.4,420.7z"/>
</g>
</svg>
