<?xml version="1.0" encoding="utf-8"?>
<!-- Generator: Adobe Illustrator 18.1.0, SVG Export Plug-In . SVG Version: 6.00 Build 0)  -->
<svg version="1.1" id="Layer_1" xmlns="http://www.w3.org/2000/svg" xmlns:xlink="http://www.w3.org/1999/xlink" x="0px" y="0px"
	 viewBox="0 0 595.3 445.7" enable-background="new 0 0 595.3 445.7" xml:space="preserve">
<g>
	<path fill="#EFEFEF" d="M565.2,67.3v337.3c0,6-5,12-12,12h-511c-6,0-12-5-12-12V72.3l250,175.7l18.1,12l17.1-13L565.2,67.3
		 M553.1,0h-511C20.1,0,2,17.1,0,38.1l0,0l0,0c0,1,0,3,0,4v361.4c0,23.1,19.1,42.2,42.2,42.2h511c23.1,0,42.2-19.1,42.2-42.2V42.2
		c0-1,0-3,0-4l0,0l0,0C592.3,17.1,574.2,0,553.1,0L553.1,0z M297.1,223.9L30.1,36.1l522,3L297.1,223.9L297.1,223.9z"/>
</g>
</svg>
