<?xml version="1.0" encoding="utf-8"?>
<!-- Generator: Adobe Illustrator 16.0.0, SVG Export Plug-In . SVG Version: 6.00 Build 0)  -->
<!DOCTYPE svg PUBLIC "-//W3C//DTD SVG 1.1//EN" "http://www.w3.org/Graphics/SVG/1.1/DTD/svg11.dtd">
<svg version="1.1" id="Your_Icon" xmlns="http://www.w3.org/2000/svg" xmlns:xlink="http://www.w3.org/1999/xlink" x="0px" y="0px"
	 width="71.111px" height="75.287px" viewBox="0 0 71.111 75.287" enable-background="new 0 0 71.111 75.287" xml:space="preserve">
<g>
	<path d="M35.741,4.213c9.374,0,17,7.626,17,17s-7.626,17-17,17s-17-7.626-17-17S26.367,4.213,35.741,4.213 M35.741,1.213
		c-11.045,0-20,8.955-20,20c0,11.046,8.955,20,20,20c11.046,0,20-8.954,20-20C55.741,10.167,46.787,1.213,35.741,1.213L35.741,1.213
		z"/>
</g>
<g>
	<path d="M49.073,50.879c10.6,0,19.224,8.624,19.224,19.224v2.185H3.185v-2.185c0-10.6,8.623-19.224,19.222-19.224H49.073
		 M49.073,47.879H22.407c-12.222,0-22.222,10-22.222,22.224v5.185h71.111v-5.185C71.297,57.879,61.297,47.879,49.073,47.879
		L49.073,47.879z"/>
</g>
</svg>
