<?xml version="1.0" encoding="utf-8"?>
<!-- Generator: Adobe Illustrator 18.1.0, SVG Export Plug-In . SVG Version: 6.00 Build 0)  -->
<svg version="1.1" id="Livello_1" xmlns="http://www.w3.org/2000/svg" xmlns:xlink="http://www.w3.org/1999/xlink" x="0px" y="0px"
	 viewBox="-247 370.9 100 100" enable-background="new -247 370.9 100 100" xml:space="preserve">
<g>
	<path fill="#020202" d="M-196.9,374.9c8,0,15.4,3.1,21,8.6s8.6,13,8.6,21c0,0.3,0,0.7,0,1l0,0l0,0c-0.1,3.1-0.7,6.1-1.7,8.9v0.1
		v0.1c-5.4,17.7-21.2,40-27.9,49c-6.8-9-22.6-31.3-27.9-49v-0.1v-0.1c-1-2.9-1.6-5.9-1.7-8.9c0-0.4,0-0.7,0-1
		C-226.7,388.2-213.3,374.9-196.9,374.9 M-196.9,425c11.3,0,20.5-9.1,20.5-20.5s-9.1-20.5-20.5-20.5s-20.5,9.1-20.5,20.5
		C-217.4,415.8-208.3,425-196.9,425 M-196.9,370.9c-18.6,0-33.7,15.1-33.7,33.7c0,0.4,0,0.8,0,1.2c0.1,3.6,0.8,7,1.9,10.1
		c7.2,23.7,31.7,54.4,31.7,54.4s24.5-30.8,31.7-54.4c1.1-3.2,1.8-6.6,1.9-10.1c0-0.4,0-0.8,0-1.2
		C-163.3,386-178.4,370.9-196.9,370.9L-196.9,370.9z M-196.9,421c-9.1,0-16.5-7.4-16.5-16.5s7.4-16.5,16.5-16.5s16.5,7.4,16.5,16.5
		S-187.8,421-196.9,421L-196.9,421z"/>
</g>
</svg>
