<?xml version="1.0" encoding="utf-8"?>
<!-- Generator: Adobe Illustrator 18.1.0, SVG Export Plug-In . SVG Version: 6.00 Build 0)  -->
<svg version="1.1" id="Livello_1" xmlns="http://www.w3.org/2000/svg" xmlns:xlink="http://www.w3.org/1999/xlink" x="0px" y="0px"
	 viewBox="-247 370.9 100 100" enable-background="new -247 370.9 100 100" xml:space="preserve">
<g>
	<path fill="#EFEFEF" d="M-197,374.9c8,0,15.5,3.1,21.1,8.7c5.6,5.6,8.7,13.1,8.7,21.1c0,0.3,0,0.7,0,1l0,0l0,0
		c-0.1,3.1-0.7,6.1-1.7,9l0,0.1l0,0.1c-5.4,17.8-21.3,40.2-28.1,49.3c-6.8-9.1-22.7-31.5-28.1-49.3l0-0.1l0-0.1
		c-1-2.9-1.6-5.9-1.7-9c0-0.4,0-0.7,0-1C-226.9,388.3-213.5,374.9-197,374.9 M-197,425.3c11.4,0,20.6-9.2,20.6-20.6
		c0-11.4-9.2-20.6-20.6-20.6s-20.6,9.2-20.6,20.6C-217.6,416.1-208.4,425.3-197,425.3 M-197,370.9c-18.7,0-33.9,15.2-33.9,33.9
		c0,0.4,0,0.8,0,1.2c0.1,3.6,0.8,7,1.9,10.2c7.2,23.8,31.9,54.7,31.9,54.7s24.7-31,31.9-54.7c1.1-3.2,1.8-6.6,1.9-10.2
		c0-0.4,0-0.8,0-1.2C-163.1,386.1-178.3,370.9-197,370.9L-197,370.9z M-197,421.3c-9.2,0-16.6-7.4-16.6-16.6
		c0-9.2,7.4-16.6,16.6-16.6c9.2,0,16.6,7.4,16.6,16.6C-180.4,413.9-187.8,421.3-197,421.3L-197,421.3z"/>
</g>
</svg>
