<?xml version="1.0" encoding="utf-8"?>
<!-- Generator: Adobe Illustrator 16.0.0, SVG Export Plug-In . SVG Version: 6.00 Build 0)  -->
<!DOCTYPE svg PUBLIC "-//W3C//DTD SVG 1.1//EN" "http://www.w3.org/Graphics/SVG/1.1/DTD/svg11.dtd">
<svg version="1.1" id="Your_Icon" xmlns="http://www.w3.org/2000/svg" xmlns:xlink="http://www.w3.org/1999/xlink" x="0px" y="0px"
	 width="69.333px" height="68.499px" viewBox="16.5 0 69.333 68.499" enable-background="new 16.5 0 69.333 68.499"
	 xml:space="preserve">
<g>
	<g>
		<path fill="#FAFAFA" d="M51.297,1.115c-18.383,0-33.334,14.951-33.334,33.325c0,18.382,14.951,33.333,33.334,33.333
			c18.382,0,33.332-14.951,33.332-33.333C84.629,16.066,69.679,1.115,51.297,1.115z M44.947,6.57
			c-3.075,3.06-5.606,6.736-7.463,10.808h-9.108C32.376,12.018,38.219,8.104,44.947,6.57z M26.32,20.541h9.875
			c-1.392,3.874-2.214,8.033-2.372,12.318H22.754C22.992,28.408,24.265,24.225,26.32,20.541z M26.32,48.34
			c-2.055-3.684-3.329-7.867-3.566-12.318h11.069c0.158,4.286,0.981,8.444,2.364,12.318H26.32z M28.368,51.502h9.116
			c1.858,4.08,4.388,7.756,7.464,10.816C38.211,60.785,32.376,56.871,28.368,51.502z M49.715,62.334
			c-3.613-2.862-6.579-6.578-8.736-10.832h8.736V62.334z M49.715,48.34H39.556c-1.502-3.834-2.396-8.009-2.562-12.318h12.721
			L49.715,48.34L49.715,48.34z M49.715,32.859H36.993c0.166-4.309,1.06-8.484,2.57-12.318h10.152V32.859z M49.715,17.378h-8.728
			c2.158-4.246,5.123-7.961,8.729-10.815L49.715,17.378L49.715,17.378z M76.272,20.541c2.056,3.685,3.329,7.867,3.565,12.318H68.77
			c-0.158-4.285-0.98-8.444-2.371-12.318H76.272z M74.217,17.378h-9.107c-1.858-4.072-4.389-7.748-7.465-10.808
			C64.373,8.104,70.217,12.018,74.217,17.378z M52.878,6.563c3.604,2.854,6.57,6.57,8.729,10.815h-8.729V6.563z M52.878,20.541
			h10.151c1.511,3.835,2.404,8.009,2.57,12.318H52.878V20.541z M52.878,36.021H65.6c-0.166,4.309-1.06,8.484-2.57,12.318H52.878
			V36.021z M52.878,62.326V51.502h8.729C59.455,55.748,56.491,59.465,52.878,62.326z M57.645,62.318
			c3.076-3.061,5.606-6.736,7.465-10.816h9.115C70.217,56.871,64.381,60.785,57.645,62.318z M76.272,48.34h-9.867
			c1.384-3.874,2.206-8.032,2.364-12.318h11.068C79.602,40.473,78.328,44.656,76.272,48.34z"/>
	</g>
</g>
<text transform="matrix(1 0 0 1 14.2598 84.4453)" font-family="'HelveticaNeue-Bold'" font-size="3.7037">Created by Garrett Knoll</text>
<text transform="matrix(1 0 0 1 14.2598 88.1484)" font-family="'HelveticaNeue-Bold'" font-size="3.7037">from the Noun Project</text>
</svg>
