<?xml version="1.0" encoding="utf-8"?>
<!-- Generator: Adobe Illustrator 16.0.0, SVG Export Plug-In . SVG Version: 6.00 Build 0)  -->
<!DOCTYPE svg PUBLIC "-//W3C//DTD SVG 1.1//EN" "http://www.w3.org/Graphics/SVG/1.1/DTD/svg11.dtd">
<svg version="1.1" id="Calque_1" xmlns="http://www.w3.org/2000/svg" xmlns:xlink="http://www.w3.org/1999/xlink" x="0px" y="0px"
	 width="66.885px" height="19.067px" viewBox="18.448 24.695 66.885 19.067" enable-background="new 18.448 24.695 66.885 19.067"
	 xml:space="preserve">
<g id="Captions">
</g>
<g id="Your_Icon">
	<g>
		<g>
			<path d="M27.986,24.695c-5.267,0-9.538,4.267-9.538,9.533c0,5.264,4.271,9.535,9.538,9.535c5.261,0,9.534-4.271,9.534-9.535
				C37.52,28.961,33.247,24.695,27.986,24.695z"/>
		</g>
		<g>
			<path d="M51.536,24.695c-5.263,0-9.531,4.267-9.531,9.533c0,5.264,4.268,9.535,9.531,9.535c5.265,0,9.535-4.271,9.535-9.535
				C61.071,28.961,56.803,24.695,51.536,24.695z"/>
		</g>
		<g>
			<path d="M75.092,24.695c-5.262,0-9.534,4.267-9.534,9.533c0,5.264,4.273,9.535,9.534,9.535c5.264,0,9.537-4.271,9.537-9.535
				C84.629,28.961,80.355,24.695,75.092,24.695z"/>
		</g>
	</g>
</g>
<text transform="matrix(1 0 0 1 14.2598 84.4453)" font-family="'HelveticaNeue-Bold'" font-size="3.7037">Created by Alex S. Lakas</text>
<text transform="matrix(1 0 0 1 14.2598 88.1484)" font-family="'HelveticaNeue-Bold'" font-size="3.7037">from the Noun Project</text>
</svg>
